<svg display="none" xmlns="http://www.w3.org/2000/svg">
    <symbol id="logo" viewBox="0 0 425 99">
        <g>
            <path d="M145.204 50.0017L143.305 53.3011H138.488L154.916 24.5587H144.656L125.8 57.7911H132.869H154.818H166.624L162.16 50.0017H145.204Z" fill="white"/>
            <path d="M164.04 24.5587H159.732L147.338 46.2431H160.026L156.737 40.5116L159.145 36.2938L171.441 57.7911H183.052L164.04 24.5587Z" fill="#E30613"/>
            <path d="M56.6836 0L0 99H19.4036L66.4344 16.8883L99.8572 74.7135H119.32L76.1264 0H56.6836Z" fill="#E30613"/>
            <path d="M61.0108 83.8634L109.04 0H89.6365L32.9529 98.966H133.319L124.606 83.8634H61.0108Z" fill="white"/>
            <path d="M94.1595 59.6279H55.4305L46.7762 74.7135H102.892L94.1595 59.6279Z" fill="#E30613"/>
            <path d="M184.05 43.2328V24.5247H194.859V43.0287C194.859 47.8588 197.658 50.1378 201.946 50.1378C206.234 50.1378 209.034 47.9438 209.034 43.3348V24.6267H219.842V42.9947C219.842 53.7603 212.755 58.4884 201.829 58.4884C190.903 58.4884 184.05 53.6753 184.05 43.2328Z" fill="white"/>
            <path d="M235.604 32.6032H224.091V24.4906H257.788V32.6032H246.256V57.8251H235.604V32.6032Z" fill="white"/>
            <path d="M259.472 41.1749C259.324 37.5884 260.413 34.0454 262.601 31.001C264.789 27.9566 267.974 25.55 271.749 24.0904C275.523 22.6308 279.714 22.1849 283.782 22.81C287.851 23.4351 291.611 25.1026 294.58 27.5983C297.549 30.094 299.591 33.3039 300.444 36.8154C301.296 40.3269 300.921 43.9797 299.365 47.3043C297.809 50.6289 295.144 53.4735 291.713 55.4725C288.282 57.4715 284.241 58.5337 280.109 58.5224C277.437 58.5789 274.779 58.173 272.289 57.3285C269.8 56.4839 267.529 55.2175 265.608 53.603C263.687 51.9885 262.156 50.0582 261.102 47.9245C260.049 45.7908 259.495 43.4964 259.472 41.1749ZM289.997 41.1749C290.05 40.0147 289.833 38.8571 289.361 37.7708C288.889 36.6845 288.171 35.6916 287.248 34.851C286.326 34.0104 285.219 33.3391 283.993 32.8771C282.767 32.415 281.446 32.1715 280.109 32.161C278.773 32.1589 277.45 32.3946 276.222 32.8534C274.994 33.3123 273.888 33.9848 272.97 34.8293C272.053 35.6737 271.345 36.6724 270.889 37.7638C270.433 38.8551 270.239 40.016 270.319 41.1749C270.267 42.3281 270.48 43.4787 270.946 44.5594C271.412 45.6402 272.122 46.6292 273.034 47.4687C273.945 48.3082 275.041 48.9811 276.256 49.4482C277.471 49.9153 278.781 50.1671 280.109 50.1888C281.454 50.2026 282.788 49.9756 284.027 49.5219C285.266 49.0682 286.385 48.3975 287.312 47.5518C288.24 46.706 288.957 45.7033 289.419 44.6062C289.881 43.509 290.078 42.341 289.997 41.1749Z" fill="white"/>
            <path d="M306.405 24.4906H317.056V49.7636H335.657V57.8251H306.405V24.4906Z" fill="white"/>
            <path d="M340.435 24.4906H351.125V57.8251H340.435V24.4906Z" fill="white"/>
            <path d="M358.154 24.4906H388.875V32.6032H368.806V38.2666H386.956V45.9199H368.806V57.8251H358.154V24.4906Z" fill="white"/>
            <path d="M393.711 24.4906H424.608V32.314H404.245V37.4162H422.69V44.7124H404.245V50.0017H424.883V57.8251H393.711V24.4906Z" fill="white"/>
            <path d="M207.546 78.6592C207.52 77.5282 207.754 76.4041 208.235 75.3527C208.715 74.3013 209.432 73.3436 210.344 72.5359C211.255 71.7281 212.343 71.0865 213.544 70.6486C214.745 70.2106 216.034 69.9852 217.336 69.9854C218.73 69.9586 220.115 70.187 221.4 70.6559C222.685 71.1247 223.842 71.8234 224.796 72.7066L223.367 74.0331C222.585 73.3156 221.644 72.7424 220.601 72.3479C219.558 71.9534 218.435 71.7457 217.297 71.7372C215.254 71.8252 213.329 72.592 211.919 73.8789C210.509 75.1657 209.723 76.8742 209.723 78.6506C209.723 80.4271 210.509 82.1355 211.919 83.4224C213.329 84.7093 215.254 85.4761 217.297 85.5641C218.472 85.5642 219.634 85.3492 220.707 84.9331C221.779 84.5169 222.739 83.9091 223.523 83.1491L224.972 84.4587C224.004 85.3941 222.811 86.1345 221.479 86.628C220.146 87.1216 218.706 87.3563 217.258 87.3159C215.958 87.3258 214.669 87.1069 213.469 86.6725C212.268 86.2381 211.182 85.5972 210.275 84.7884C209.367 83.9795 208.658 83.0195 208.189 81.9661C207.72 80.9128 207.501 79.7878 207.546 78.6592Z" fill="white"/>
            <path d="M231.962 78.6592C231.997 76.9841 232.601 75.3553 233.697 73.9772C234.794 72.599 236.335 71.533 238.126 70.9128C239.918 70.2925 241.881 70.1458 243.768 70.491C245.655 70.8362 247.383 71.6579 248.735 72.8531C250.086 74.0482 251.001 75.5635 251.365 77.2087C251.729 78.854 251.525 80.5559 250.779 82.1008C250.033 83.6458 248.778 84.9649 247.173 85.8927C245.567 86.8205 243.681 87.3156 241.752 87.3159C240.452 87.3161 239.164 87.0912 237.965 86.6543C236.765 86.2174 235.678 85.5773 234.767 84.7714C233.855 83.9654 233.138 83.0098 232.656 81.9604C232.175 80.9109 231.939 79.7887 231.962 78.6592ZM249.369 78.6592C249.408 77.7667 249.241 76.8765 248.876 76.0413C248.512 75.2062 247.958 74.4431 247.248 73.7975C246.537 73.1518 245.685 72.6367 244.741 72.2828C243.797 71.9289 242.78 71.7433 241.752 71.7372C240.727 71.7406 239.713 71.9248 238.771 72.2787C237.83 72.6326 236.981 73.1487 236.277 73.7959C235.572 74.4431 235.026 75.2078 234.671 76.0438C234.317 76.8797 234.161 77.7695 234.214 78.6592C234.214 80.4048 235.012 82.0789 236.433 83.3132C237.854 84.5476 239.782 85.241 241.791 85.241C243.801 85.241 245.728 84.5476 247.149 83.3132C248.571 82.0789 249.369 80.4048 249.369 78.6592Z" fill="white"/>
            <path d="M258.826 70.2745H261.195L266.717 84.2206L272.003 70.2405H273.785L279.071 84.2206L284.573 70.2745H286.864L279.992 87.1459H278.132L272.845 73.5399L267.539 87.1459H265.718L258.826 70.2745Z" fill="white"/>
            <path d="M294.05 78.6592C294.085 76.9841 294.688 75.3553 295.785 73.9772C296.882 72.599 298.422 71.533 300.214 70.9128C302.006 70.2925 303.968 70.1458 305.856 70.491C307.743 70.8362 309.471 71.6579 310.822 72.8531C312.174 74.0482 313.089 75.5635 313.453 77.2087C313.816 78.854 313.612 80.5559 312.867 82.1008C312.121 83.6458 310.866 84.9649 309.26 85.8927C307.654 86.8205 305.769 87.3156 303.84 87.3159C302.539 87.3161 301.252 87.0912 300.052 86.6543C298.853 86.2174 297.766 85.5773 296.854 84.7714C295.943 83.9654 295.226 83.0098 294.744 81.9604C294.263 80.9109 294.027 79.7887 294.05 78.6592ZM311.457 78.6592C311.384 77.3723 310.878 76.1323 310.001 75.093C309.125 74.0536 307.916 73.2605 306.526 72.812C305.135 72.3636 303.624 72.2795 302.179 72.5701C300.734 72.8608 299.419 73.5135 298.397 74.4472C297.375 75.3809 296.691 76.5547 296.429 77.8229C296.168 79.0912 296.341 80.3981 296.927 81.5818C297.513 82.7654 298.486 83.7737 299.725 84.4816C300.964 85.1895 302.415 85.5659 303.899 85.5641C304.92 85.5511 305.928 85.3611 306.864 85.0052C307.8 84.6494 308.645 84.1348 309.349 83.4917C310.053 82.8485 310.602 82.0898 310.964 81.26C311.326 80.4302 311.493 79.546 311.457 78.6592Z" fill="white"/>
            <path d="M322.402 70.2745H330.703C331.701 70.231 332.699 70.3588 333.64 70.6506C334.58 70.9425 335.446 71.3926 336.186 71.9753C336.68 72.4288 337.066 72.9628 337.322 73.5467C337.577 74.1305 337.697 74.7525 337.674 75.3767C337.668 76.6149 337.124 77.8054 336.151 78.7103C335.178 79.6152 333.848 80.1679 332.427 80.2579L338.3 87.0608H335.618L330.038 80.547H324.536V87.0608H322.343L322.402 70.2745ZM330.508 78.7782C333.406 78.7782 335.461 77.4857 335.461 75.2747C335.461 73.0637 333.64 71.9753 330.527 71.9753H324.653V78.7782H330.508Z" fill="white"/>
            <path d="M346.426 70.2746H348.521V80.2749L359.584 70.2746H362.403L354.141 77.6047L362.756 87.0268H360.034L352.633 78.9143L348.521 82.5199V87.0268H346.348L346.426 70.2746Z" fill="white"/>
            <path d="M370.529 70.2746H372.702V87.0268H370.529V70.2746Z" fill="white"/>
            <path d="M382.453 70.2746H384.411L396.57 83.6934V70.2746H398.685V87.0268H396.942L384.509 73.3019V87.0268H382.375L382.453 70.2746Z" fill="white"/>
            <path d="M407.456 78.6592C407.431 77.5368 407.661 76.421 408.134 75.3763C408.607 74.3315 409.313 73.3785 410.212 72.5721C411.112 71.7657 412.186 71.122 413.373 70.678C414.56 70.2341 415.837 69.9987 417.129 69.9854C419.767 69.8874 422.345 70.6866 424.315 72.2134L422.905 73.659C421.318 72.3674 419.205 71.6761 417.031 71.7372C416.022 71.7608 415.029 71.9601 414.11 72.3235C413.192 72.6868 412.366 73.2066 411.683 73.8522C411 74.4978 410.474 75.2559 410.134 76.0817C409.795 76.9074 409.65 77.7839 409.708 78.6592C409.628 79.5615 409.767 80.4683 410.117 81.3209C410.466 82.1735 411.017 82.9529 411.735 83.6087C412.453 84.2644 413.322 84.7818 414.285 85.1275C415.248 85.4731 416.283 85.6393 417.325 85.6152C419.344 85.5984 421.3 85.0002 422.885 83.9145V79.7817H417.011V78.0809H424.961V84.7478C422.834 86.4004 420.081 87.3146 417.227 87.3159C415.916 87.3528 414.61 87.1528 413.392 86.7285C412.174 86.3043 411.072 85.665 410.153 84.8513C409.235 84.0375 408.521 83.0669 408.057 82.0011C407.592 80.9352 407.388 79.7972 407.456 78.6592Z" fill="white"/>
        </g>
    </symbol>
</svg>